<svg id="Logo" xmlns="http://www.w3.org/2000/svg" width="128" height="69.708" viewBox="0 0 128 69.708">
  <path id="Path_1" data-name="Path 1" d="M332.865,139.979H318.88V95.93h5.886v38.709h8.1Z" transform="translate(-245.048 -95.846)" fill="#231f20"/>
  <path id="Path_2" data-name="Path 2" d="M367.478,114.64v5.34h-7.727v20H353.86V95.93h14.6v5.335h-8.71V114.64Z" transform="translate(-262.669 -95.846)" fill="#231f20"/>
  <path id="Path_3" data-name="Path 3" d="M396.586,139.979H390.7V103.473q0-7.538,7.052-7.543h4.417q7.057,0,7.057,7.543v36.506h-5.891V123.841h-6.749Zm6.749-21.474v-14.66a2.279,2.279,0,0,0-2.576-2.581h-1.593a2.281,2.281,0,0,0-2.581,2.581v14.66Z" transform="translate(-281.226 -95.846)" fill="#231f20"/>
  <path id="Path_4" data-name="Path 4" d="M233.752,139.859c-1.935-7.256-4.764-11.767-8.114-17.181a62.032,62.032,0,0,1-4.62,5.027c-8.437,8.189-17.786,12.471-26.357,12.045-11.911-.586-24.665-7.712-24.551-21.98a20.1,20.1,0,0,1,7.94-16.1,29.138,29.138,0,0,1,16.615-5.836c8.67-.4,18.01,3.8,26.3,11.826a58.064,58.064,0,0,1,4.67,5.131,58.642,58.642,0,0,0,7.717-17.027h6a74.729,74.729,0,0,1-10.05,22,74.074,74.074,0,0,1,10.05,22.094ZM195.757,101.6h-.834c-9.1.417-18.938,5.658-19.022,16.193s9.5,15.677,19.032,16.149c6.844.333,14.888-3.474,22.035-10.422a56.819,56.819,0,0,0,5.221-5.806C214.183,107.293,204.174,101.6,195.757,101.6Z" transform="translate(-170.108 -95.76)" fill="#ed1c24"/>
  <path id="Path_5" data-name="Path 5" d="M210.182,222.346a3.94,3.94,0,0,1-1.7-1.32,3.5,3.5,0,0,1-.645-2.04H210.6a1.772,1.772,0,0,0,.556,1.246,1.985,1.985,0,0,0,1.39.462,2.129,2.129,0,0,0,1.414-.432,1.409,1.409,0,0,0,.5-1.132,1.315,1.315,0,0,0-.352-.938,2.4,2.4,0,0,0-.868-.576c-.352-.139-.834-.3-1.444-.471a15.27,15.27,0,0,1-2.03-.725,3.6,3.6,0,0,1-1.345-1.082,3.107,3.107,0,0,1-.556-1.94,3.474,3.474,0,0,1,.566-1.985,3.678,3.678,0,0,1,1.6-1.3,5.88,5.88,0,0,1,2.352-.452,5.087,5.087,0,0,1,3.226.993,3.558,3.558,0,0,1,1.37,2.69h-2.829a1.489,1.489,0,0,0-.561-1.092,2.114,2.114,0,0,0-1.39-.432,1.772,1.772,0,0,0-1.2.387,1.39,1.39,0,0,0-.452,1.122,1.156,1.156,0,0,0,.342.854,2.565,2.565,0,0,0,.844.551c.337.139.809.3,1.424.5a14.889,14.889,0,0,1,2.04.734,3.7,3.7,0,0,1,1.36,1.1A3.087,3.087,0,0,1,217.12,219a3.608,3.608,0,0,1-.536,1.911,3.712,3.712,0,0,1-1.558,1.4,5.31,5.31,0,0,1-2.447.526A6.084,6.084,0,0,1,210.182,222.346Z" transform="translate(-189.115 -153.135)" fill="#231f20"/>
  <path id="Path_6" data-name="Path 6" d="M255.768,210v7.94a2.739,2.739,0,0,0,.68,1.985,3.017,3.017,0,0,0,3.841,0,2.739,2.739,0,0,0,.68-1.985V210h2.591v7.94a5.127,5.127,0,0,1-.71,2.769,4.467,4.467,0,0,1-1.891,1.7,5.955,5.955,0,0,1-2.635.571,5.816,5.816,0,0,1-2.6-.571,4.323,4.323,0,0,1-1.846-1.7,5.256,5.256,0,0,1-.68-2.769V210Z" transform="translate(-211.961 -153.305)" fill="#231f20"/>
  <path id="Path_7" data-name="Path 7" d="M302.972,222.336a3.93,3.93,0,0,1-1.7-1.32,3.474,3.474,0,0,1-.64-2.04h2.754a1.777,1.777,0,0,0,.561,1.246,1.985,1.985,0,0,0,1.39.462,2.129,2.129,0,0,0,1.434-.442,1.4,1.4,0,0,0,.5-1.132,1.315,1.315,0,0,0-.347-.938,2.417,2.417,0,0,0-.873-.576c-.347-.139-.829-.3-1.439-.471a15.38,15.38,0,0,1-2.035-.725,3.549,3.549,0,0,1-1.34-1.082,3.107,3.107,0,0,1-.561-1.94,3.474,3.474,0,0,1,.571-1.985,3.648,3.648,0,0,1,1.6-1.3,5.851,5.851,0,0,1,2.352-.452,5.092,5.092,0,0,1,3.226.993,3.588,3.588,0,0,1,1.37,2.69h-2.834a1.489,1.489,0,0,0-.556-1.092,2.124,2.124,0,0,0-1.39-.432,1.8,1.8,0,0,0-1.206.387,1.4,1.4,0,0,0-.447,1.122,1.151,1.151,0,0,0,.337.854,2.64,2.64,0,0,0,.849.551c.333.139.809.3,1.424.5a15.047,15.047,0,0,1,2.035.734,3.623,3.623,0,0,1,1.36,1.1,3.057,3.057,0,0,1,.571,1.931,3.647,3.647,0,0,1-.531,1.911,3.752,3.752,0,0,1-1.563,1.4,5.275,5.275,0,0,1-2.442.526A6.064,6.064,0,0,1,302.972,222.336Z" transform="translate(-235.855 -153.125)" fill="#231f20"/>
  <path id="Path_8" data-name="Path 8" d="M356.7,210v12.829h-2.576V217.37h-5.494v5.459H346.06V210h2.571v5.275h5.494V210Z" transform="translate(-258.74 -153.305)" fill="#231f20"/>
  <path id="Path_9" data-name="Path 9" d="M397.391,210v12.829H394.82V210Z" transform="translate(-283.301 -153.305)" fill="#231f20"/>
</svg>
